{"accessors" : [{"bufferView" : 0, "byteOffset" : 0, "componentType" : 5123, "count" : 3672, "type" : "SCALAR", "max" : [3671], "min" : [0]}, {"bufferView" : 1, "byteOffset" : 0, "componentType" : 5126, "count" : 3672, "type" : "VEC3", "max" : [88104, 88108, 88112], "min" : [-0.0005319073097780347, 3.9994680881500244, 7.9994683265686035]}, {"bufferView" : 1, "byteOffset" : 12, "componentType" : 5126, "count" : 3672, "type" : "VEC3", "max" : [88116, 88120, 88124], "min" : [11.999467849731445, 15.999467849731445, 19.999467849731445]}], "asset" : {"generator" : "Aspose.3D 20.8", "version" : "2.0"}, "buffers" : [{"uri" : "buffer.bin", "byteLength" : 95480}], "bufferViews" : [{"buffer" : 0, "byteOffset" : 0, "byteLength" : 7344, "target" : 34963}, {"buffer" : 0, "byteOffset" : 7348, "byteLength" : 88128, "byteStride" : 24, "target" : 34962}], "materials" : [{"pbrMetallicRoughness" : {"baseColorFactor" : [0.800000011920929, 0.800000011920929, 0.800000011920929, 1], "metallicFactor" : 0, "roughnessFactor" : 0}, "emissiveFactor" : [0, 0, 0], "alphaMode" : "OPAQUE", "doubleSided" : false}], "meshes" : [{"primitives" : [{"attributes" : {"POSITION" : 1, "NORMAL" : 2}, "indices" : 0, "material" : 0, "mode" : 4}]}], "nodes" : [{"mesh" : 0, "name" : "node0"}], "scene" : 0, "scenes" : [{"nodes" : [0]}]}